<svg width="24" height="24" viewBox="0 0 24 24" fill="none" xmlns="http://www.w3.org/2000/svg">
  <!-- Puzzle / Custom Skills -->
  <path d="M4 7H8V4C8 3.4 8.4 3 9 3H10.5C10.8 3 11.1 3.1 11.3 3.3C11.9 3.9 12 4.5 12 5C12 4.5 12.1 3.9 12.7 3.3C12.9 3.1 13.2 3 13.5 3H15C15.6 3 16 3.4 16 4V7H20C20.6 7 21 7.4 21 8V12H18C18 12 17.1 12.1 16.7 12.7C16.5 12.9 16 13.5 16 14C16 13.5 16.5 12.9 16.7 12.7" stroke="#1A1A1A" stroke-width="2" stroke-linecap="round" stroke-linejoin="round"/>
  <rect x="3" y="7" width="18" height="14" rx="1" stroke="#1A1A1A" stroke-width="2"/>
</svg>
